<svg xmlns="http://www.w3.org/2000/svg" width="26" height="100" viewBox="0 0 26 100" version="1.1"><path d="M 4.571 9.368 C 1.355 12.401, 1 13.260, 1 18 C 1 22.740, 1.355 23.599, 4.571 26.632 C 7.624 29.511, 8.853 30, 13.038 30 C 17.308 30, 18.385 29.549, 21.467 26.467 C 24.549 23.385, 25 22.308, 25 18.038 C 25 13.853, 24.511 12.624, 21.632 9.571 C 18.632 6.390, 17.711 6, 13.203 6 C 8.831 6, 7.657 6.458, 4.571 9.368 M 10.465 10.961 C 2.848 14.014, 4.844 25.333, 13 25.333 C 17.052 25.333, 20.333 22.052, 20.333 18 C 20.333 12.989, 14.963 9.158, 10.465 10.961 M 4.571 41.368 C 1.355 44.401, 1 45.260, 1 50 C 1 54.740, 1.355 55.599, 4.571 58.632 C 7.624 61.511, 8.853 62, 13.038 62 C 17.308 62, 18.385 61.549, 21.467 58.467 C 24.549 55.385, 25 54.308, 25 50.038 C 25 45.853, 24.511 44.624, 21.632 41.571 C 18.632 38.390, 17.711 38, 13.203 38 C 8.831 38, 7.657 38.458, 4.571 41.368 M 10.465 42.961 C 2.848 46.014, 4.844 57.333, 13 57.333 C 17.052 57.333, 20.333 54.052, 20.333 50 C 20.333 44.989, 14.963 41.158, 10.465 42.961 M 4.571 73.368 C 1.355 76.401, 1 77.260, 1 82 C 1 86.740, 1.355 87.599, 4.571 90.632 C 7.624 93.511, 8.853 94, 13.038 94 C 17.308 94, 18.385 93.549, 21.467 90.467 C 24.549 87.385, 25 86.308, 25 82.038 C 25 77.853, 24.511 76.624, 21.632 73.571 C 18.632 70.390, 17.711 70, 13.203 70 C 8.831 70, 7.657 70.458, 4.571 73.368 M 10.465 74.961 C 2.848 78.014, 4.844 89.333, 13 89.333 C 21.695 89.333, 22.964 76.928, 14.500 74.677 C 13.400 74.385, 11.584 74.512, 10.465 74.961" stroke="none" fill="#fffcfc" fill-rule="evenodd"/><path d="" stroke="none" fill="#fcfcfc" fill-rule="evenodd"/></svg>